<?xml version="1.0" encoding="UTF-8" standalone="no"?>
<!-- Created with Inkscape (http://www.inkscape.org/) -->

<svg
   width="3840"
   height="2160"
   viewBox="0 0 3840 2160"
   version="1.1"
   id="svg5"
   xml:space="preserve"
   xmlns:xlink="http://www.w3.org/1999/xlink"
   xmlns="http://www.w3.org/2000/svg"
   xmlns:svg="http://www.w3.org/2000/svg"><defs
     id="defs2"><linearGradient
       id="linearGradient2882"><stop
         style="stop-color:#000000;stop-opacity:0;"
         offset="0.23803478"
         id="stop2880" /><stop
         style="stop-color:#000000;stop-opacity:0.64035827;"
         offset="1"
         id="stop2878" /></linearGradient><linearGradient
       id="linearGradient2812"><stop
         style="stop-color:#003445;stop-opacity:1;"
         offset="0"
         id="stop2808" /><stop
         style="stop-color:#006888;stop-opacity:1;"
         offset="1"
         id="stop2810" /></linearGradient><linearGradient
       id="linearGradient11156"><stop
         style="stop-color:#000000;stop-opacity:1;"
         offset="0"
         id="stop11154" /></linearGradient><pattern
       xlink:href="#pattern5539"
       id="pattern7141"
       patternTransform="matrix(1.057443,0,-1.7913112e-8,1.0574435,1754.724,722.42129)" /><pattern
       patternUnits="userSpaceOnUse"
       width="648.719"
       height="336.20131"
       patternTransform="translate(1614.7878,889.48709)"
       id="pattern5539"><g
         id="g5483"
         transform="translate(-1.8878906,-1.9085627)"><g
           id="layer1-3"
           transform="translate(-35.477954,-382.24677)" /><g
           id="layer2"
           transform="translate(-35.477954,-382.24677)"><g
             id="layer3" /><g
             id="layer4" /><g
             id="layer14" /></g><g
           id="layer5"
           transform="translate(-35.477954,-382.24677)"
           style="display:inline"><g
             id="layer7" /><g
             id="layer6" /><g
             id="layer13" /></g><g
           id="layer8"
           transform="translate(-35.477954,-382.24677)"><g
             id="layer12" /><g
             id="layer10"><path
               d="m 686.01129,438.94339 c -3.353,-2.77349 -29.64674,38.71236 -23.83256,43.01749 3.49603,2.61546 25.33033,-41.53853 23.83256,-43.01749 z"
               id="path13"
               style="fill:#020202;fill-opacity:1;fill-rule:evenodd;stroke:none;stroke-width:3.77953;stroke-linecap:butt;stroke-linejoin:miter;stroke-miterlimit:4;stroke-dasharray:none;stroke-opacity:1" /><path
               d="m 655.78463,433.1306 c -1.65949,-1.92678 -10.46548,42.78039 -6.39371,44.75985 3.49601,2.61546 9.58499,-42.43418 6.39371,-44.75985 z"
               id="path18"
               style="fill:#020202;fill-opacity:1;fill-rule:evenodd;stroke:none;stroke-width:3.77953;stroke-linecap:butt;stroke-linejoin:miter;stroke-miterlimit:4;stroke-dasharray:none;stroke-opacity:1" /><path
               style="fill:#020202;fill-opacity:1;fill-rule:evenodd;stroke:none;stroke-width:3.77953;stroke-linecap:butt;stroke-linejoin:miter;stroke-miterlimit:4;stroke-dasharray:none;stroke-opacity:1"
               d="m 37.625,384.15853 c -3.443355,1.88538 27.552632,22.09367 85.46875,45.9375 57.91987,23.84382 137.92965,84.27698 131.65625,94.03125 -18.81237,26.49691 -29.90817,58.18792 -22.25,112.46875 1.38111,9.55483 -28.31634,26.14558 -26.15625,40.5625 1.80637,10.9698 33.19295,-10.87512 36.625,-6.5625 2.0999,7.74098 -16.79186,46.91895 -9.15625,49.71875 5.58462,1.6596 54.67873,-46.58659 57.53125,-45.78125 80.96219,24.47603 186.3041,5.99395 188.34375,5.21875 -0.19196,-0.42524 75.80178,35.72642 82.40625,31.40625 16.65983,-18.04093 -31.57326,-43.46801 -23.53125,-53.625 3.52614,-5.31744 58.74796,19.9643 61.46875,13.0625 3.95898,-11.94824 -25.64187,-37.03634 -30.09375,-44.46875 -3.87242,-6.85285 -4.71239,-17.9194 5.21875,-24.84375 9.9349,-6.92434 111.50996,-45.77552 107.25,-75.84375 -7.36468,-54.63458 -128.82052,-58.18257 -130.78125,-62.78125 -0.92191,-2.1601 5.3446,-78.12685 -30.09375,-64.09375 -21.81925,8.12105 -4.00496,56.52301 -2.59375,62.78125 1.30204,5.7615 -9.70773,5.15389 -11.78125,2.625 -4.6287,-5.65237 -19.9116,-56.10291 -37.9375,-47.09375 -25.28137,13.939 -1.48853,57.43256 -6.53125,58.84375 -9.36668,5.23466 -8.83606,18.02087 -16.34375,28.4375 -12.38092,17.74363 -105.021,-8.31111 -134.96875,-10.125 -21.92462,-1.29455 -42.8956,16.69428 -44.875,14.40625 -26.69638,-26.73399 -81.9285,-73.2869 -142.4375,-88.75 C 90.129469,410.48114 39.649614,383.81985 37.625,384.15853 Z m 529.46875,102.21875 c 5.78951,-10e-6 10.46875,5.34579 10.46875,11.9375 2e-5,6.59167 -4.67924,11.9375 -10.46875,11.9375 -5.78954,0 -10.5,-5.34583 -10.5,-11.9375 10e-6,-6.59171 4.71046,-11.9375 10.5,-11.9375 z m -23.53125,7.25 c 4.45553,19.23387 11.41036,25.36339 32.28125,24.75 -26.56462,24.35939 -42.70923,-17.37781 -32.28125,-24.75 z M 601,543.90853 c 1.08692,0.0412 1.92367,0.28894 2.46875,0.8125 10.46545,3.79336 -44.97502,23.75615 -45.34375,20.9375 -0.57648,-2.01216 32.36808,-22.14821 42.875,-21.75 z m 5.625,12.78125 c 0.57282,-0.0444 1.07711,0.032 1.5,0.25 9.87845,9.8145 -31.27532,31.57642 -30.8125,30.8125 -3.31635,-2.00393 20.72016,-30.39586 29.3125,-31.0625 z"
               id="path14" /></g><g
             id="layer15" /></g></g></pattern><filter
       id="filter3721"
       x="-0.015798219"
       y="-0.049912523"
       width="1.0315964"
       height="1.099825"><feGaussianBlur
         stdDeviation="4.6802061"
         id="feGaussianBlur3723" /></filter><filter
       style="color-interpolation-filters:sRGB"
       id="filter2471"
       x="-0.021729408"
       y="-0.041928094"
       width="1.0434588"
       height="1.0838562"><feGaussianBlur
         stdDeviation="5.8734499"
         id="feGaussianBlur2473" /></filter><linearGradient
       xlink:href="#linearGradient2812"
       id="linearGradient2814"
       x1="-24.05496"
       y1="431.54807"
       x2="634.90247"
       y2="107.3695"
       gradientUnits="userSpaceOnUse" /><radialGradient
       xlink:href="#linearGradient2882"
       id="radialGradient2884"
       cx="1920"
       cy="1080"
       fx="1920"
       fy="1080"
       r="1920"
       gradientTransform="matrix(1.9808649,0,0,1.1142366,-2462.2958,124.53182)"
       gradientUnits="userSpaceOnUse" /><linearGradient
       xlink:href="#linearGradient2812"
       id="linearGradient3686"
       gradientUnits="userSpaceOnUse"
       x1="-24.05496"
       y1="431.54807"
       x2="634.90247"
       y2="107.3695" /><linearGradient
       xlink:href="#linearGradient2812"
       id="linearGradient3688"
       gradientUnits="userSpaceOnUse"
       x1="-24.05496"
       y1="431.54807"
       x2="634.90247"
       y2="107.3695" /><linearGradient
       xlink:href="#linearGradient2812"
       id="linearGradient3690"
       gradientUnits="userSpaceOnUse"
       x1="-24.05496"
       y1="431.54807"
       x2="634.90247"
       y2="107.3695" /><linearGradient
       xlink:href="#linearGradient2812"
       id="linearGradient3692"
       gradientUnits="userSpaceOnUse"
       x1="-24.05496"
       y1="431.54807"
       x2="634.90247"
       y2="107.3695" /><linearGradient
       xlink:href="#linearGradient2812"
       id="linearGradient3694"
       gradientUnits="userSpaceOnUse"
       x1="-24.05496"
       y1="431.54807"
       x2="634.90247"
       y2="107.3695" /><linearGradient
       xlink:href="#linearGradient2812"
       id="linearGradient3696"
       gradientUnits="userSpaceOnUse"
       x1="-24.05496"
       y1="431.54807"
       x2="634.90247"
       y2="107.3695" /><linearGradient
       xlink:href="#linearGradient2812"
       id="linearGradient3698"
       gradientUnits="userSpaceOnUse"
       x1="-24.05496"
       y1="431.54807"
       x2="634.90247"
       y2="107.3695" /><linearGradient
       xlink:href="#linearGradient2812"
       id="linearGradient3700"
       gradientUnits="userSpaceOnUse"
       x1="-24.05496"
       y1="431.54807"
       x2="634.90247"
       y2="107.3695" /><linearGradient
       xlink:href="#linearGradient2812"
       id="linearGradient3702"
       gradientUnits="userSpaceOnUse"
       x1="-24.05496"
       y1="431.54807"
       x2="634.90247"
       y2="107.3695" /><linearGradient
       xlink:href="#linearGradient2812"
       id="linearGradient3704"
       gradientUnits="userSpaceOnUse"
       x1="-24.05496"
       y1="431.54807"
       x2="634.90247"
       y2="107.3695" /><linearGradient
       xlink:href="#linearGradient2812"
       id="linearGradient3706"
       gradientUnits="userSpaceOnUse"
       x1="-24.05496"
       y1="431.54807"
       x2="634.90247"
       y2="107.3695" /><linearGradient
       xlink:href="#linearGradient2812"
       id="linearGradient3708"
       gradientUnits="userSpaceOnUse"
       x1="-24.05496"
       y1="431.54807"
       x2="634.90247"
       y2="107.3695" /><linearGradient
       xlink:href="#linearGradient2812"
       id="linearGradient3710"
       gradientUnits="userSpaceOnUse"
       x1="-24.05496"
       y1="431.54807"
       x2="634.90247"
       y2="107.3695" /><linearGradient
       xlink:href="#linearGradient2812"
       id="linearGradient3712"
       gradientUnits="userSpaceOnUse"
       x1="-24.05496"
       y1="431.54807"
       x2="634.90247"
       y2="107.3695" /><linearGradient
       xlink:href="#linearGradient2812"
       id="linearGradient3714"
       gradientUnits="userSpaceOnUse"
       x1="-24.05496"
       y1="431.54807"
       x2="634.90247"
       y2="107.3695" /><linearGradient
       xlink:href="#linearGradient2812"
       id="linearGradient3716"
       gradientUnits="userSpaceOnUse"
       x1="-24.05496"
       y1="431.54807"
       x2="634.90247"
       y2="107.3695" /></defs><g
     id="layer9"><rect
       style="fill:#003445;fill-opacity:1;stroke-width:7.56568"
       id="rect7261"
       width="3840"
       height="2160"
       x="0"
       y="0" /><rect
       style="opacity:0.1;mix-blend-mode:normal;fill:url(#pattern7141);fill-opacity:1;stroke-width:2.50528"
       id="rect234"
       width="3840"
       height="2160"
       x="0"
       y="0" /></g><g
     id="layer1"><g
       id="g7479"
       style="display:inline"><rect
         style="opacity:1;fill:#003445;fill-opacity:1;stroke-width:2.18594"
         id="rect7468"
         width="727.04602"
         height="287.33014"
         x="2468.8723"
         y="414.62701" /></g><g
       id="layer1-6"
       transform="matrix(3.4505757,-0.02105689,0.02105689,3.4505757,2800.4991,255.00131)"
       style="opacity:0.1;fill:#000000;fill-opacity:1"><path
         id="path3699"
         d="m 92.345612,226.30209 -21.24585,-21.2458 34.158048,-34.1688 34.15806,-34.16884 -24.33132,-25.83533 C 101.70234,96.673884 87.434682,81.641904 83.378642,77.478924 l -7.37461,-7.56905 24.460518,-23.70276 24.46051,-23.70275 11.33616,13.89034 c 6.23488,7.63969 18.69554,22.9495 27.69037,34.02181 8.99483,11.07231 16.71171,20.13147 17.14863,20.13147 0.43692,0 9.46583,-10.6875 20.06425,-23.75 26.60067,-32.78521 34.34915,-42.14349 34.94141,-42.2008 0.27969,-0.0271 10.36823,9.81815 22.41898,21.87824 l 21.91044,21.92744 -24.45342,25.32256 C 242.5325,107.65283 228.42187,122.32163 224.62492,126.32277 l -6.90355,7.27479 4.48316,4.72521 c 2.46573,2.59886 12.30776,13.05022 21.87118,23.22522 9.56341,10.175 22.13263,23.3347 27.9316,29.2438 l 10.54358,10.7438 -22.30939,22.39 -22.30939,22.39 -30.99252,-35.3838 c -17.04589,-19.4611 -31.36136,-35.3838 -31.81217,-35.3838 -0.4508,0 -14.16446,16.2 -30.47479,36 -16.31035,19.8 -29.97152,36 -30.35817,36 -0.38665,0 -10.26363,-9.5606 -21.948848,-21.2459 z M 309.09736,142.54798 V 38.547984 h 60.5 60.5 v 25.5 25.5 h -28.5 -28.5 v 16.999996 17 h 27 27 v 23.50001 23.5 h -27 -27 v 38 38 h -32 -32 z m 247.5,102.36941 c -2.2,-0.2309 -8.84328,-1.3232 -14.76285,-2.4273 -47.88453,-8.9312 -75.42119,-36.7785 -80.781,-81.6921 -5.33572,-44.7118 25.85107,-84.569796 87.80142,-112.213806 17.49947,-7.80876 58.45252,-21.15945 60.0392,-19.57277 0.22434,0.22434 2.83353,12.24935 5.7982,26.72223 2.96467,14.47289 5.61573,27.28115 5.89124,28.46281 0.45642,1.95757 -0.0983,2.25048 -6.24264,3.29673 -11.27829,1.92041 -28.63113,6.74475 -39.23951,10.90915 -20.76041,8.149636 -35.08361,19.458116 -41.76387,32.973476 -3.53257,7.14702 -3.74019,8.09829 -3.74019,17.13718 0,8.8024 0.26434,10.1073 3.29514,16.2669 6.8991,14.0214 22.32687,21.4104 49.60843,23.7598 11.48608,0.9891 34.66485,0.137 42.84643,-1.5751 l 2.75,-0.5755 v 27.0604 27.0604 l -2.25,0.5348 c -9.85495,2.3423 -24.94739,3.7172 -43.75,3.9857 -11.825,0.1688 -23.3,0.118 -25.5,-0.113 z m 104.5,-104.86941 V 34.547984 h 60 60 v 24.5 24.5 h -28.5 -28.5 v 15.5 15.499996 h 24.5 24.5 v 24.5 24.50001 h -24.5 -24.5 v 15 15 h 29 29 v 26 26 h -60.5 -60.5 z"
         style="opacity:0.7;fill:#000000;fill-opacity:1;filter:url(#filter3721)"
         transform="matrix(0.26458333,0,0,0.26458333,-99.263728,51.875513)" /><path
         style="fill:#000000;fill-opacity:1;stroke-width:0.264583"
         d="m -76.95803,111.20067 -5.621297,-5.62128 9.03765,-9.040496 9.037651,-9.040505 -6.43766,-6.835598 C -74.482395,76.903211 -78.25738,72.926 -79.33054,71.824544 l -1.951199,-2.002644 6.471846,-6.271355 6.471842,-6.271353 2.999357,3.675152 c 1.649645,2.021335 4.946528,6.072056 7.32641,9.001604 2.379882,2.929549 4.42164,5.326452 4.537242,5.326452 0.115602,0 2.504501,-2.827735 5.308666,-6.283854 7.038094,-8.674421 9.088213,-11.150466 9.244915,-11.165629 0.074,-0.0072 2.743261,2.597719 5.931688,5.788618 l 5.797137,5.801635 -6.469967,6.699928 c -3.558482,3.684959 -7.291919,7.566079 -8.296529,8.624714 l -1.826564,1.924788 1.186169,1.250212 c 0.652391,0.687615 3.256428,3.452871 5.78675,6.145006 2.530319,2.692136 5.855925,6.173972 7.390236,7.737422 l 2.789655,2.84263 -5.902693,5.92402 -5.902692,5.92402 -8.200105,-9.36196 c -4.510058,-5.14908 -8.297693,-9.361965 -8.41697,-9.361965 -0.119274,0 -3.74768,4.286245 -8.063121,9.524995 -4.315444,5.23875 -7.929962,9.525 -8.032263,9.525 -0.102301,0 -2.715585,-2.52957 -5.8073,-5.62131 z M -19.609132,89.040732 V 61.524066 H -3.6018408 12.405452 v 6.746876 6.746875 h -7.5406298 -7.540621 v 4.497915 4.497917 h 7.143751 7.1437498 v 6.217711 6.217708 h -7.1437498 -7.143751 v 10.054162 10.05417 h -8.4666672 -8.466666 z m 65.484374,27.085238 c -0.58208,-0.0611 -2.33978,-0.3501 -3.906,-0.64222 -12.66945,-2.36305 -19.95519,-9.73098 -21.37331,-21.614369 -1.41174,-11.829997 6.83976,-22.375759 23.23079,-29.689903 4.63007,-2.066068 15.46557,-5.598438 15.88537,-5.178629 0.0594,0.05936 0.74971,3.240974 1.53411,7.070257 0.7844,3.829285 1.48583,7.218137 1.55873,7.530785 0.12076,0.51794 -0.026,0.595439 -1.6517,0.87226 -2.98405,0.508108 -7.57532,1.784548 -10.38212,2.886379 -5.49286,2.156258 -9.28254,5.148293 -11.05003,8.724232 -0.93466,1.890983 -0.98959,2.142673 -0.98959,4.534212 0,2.328969 0.0699,2.674224 0.87184,4.303951 1.82539,3.709829 5.90732,5.664835 13.12556,6.286445 3.03903,0.2617 9.17175,0.0362 11.33645,-0.41674 l 0.72761,-0.15227 v 7.15973 7.15973 l -0.59531,0.1415 c -2.60746,0.61973 -6.60067,0.98351 -11.57552,1.05455 -3.1287,0.0447 -6.1648,0.0312 -6.74688,-0.0299 z M 73.524202,88.379274 V 60.465733 h 15.875 15.874998 v 6.482292 6.482292 h -7.540628 -7.54062 v 4.101041 4.101041 h 6.48229 6.482288 v 6.482291 6.482295 h -6.482288 -6.48229 v 3.96875 3.968745 h 7.67292 7.672908 v 6.87917 6.87917 H 89.531492 73.524202 Z"
         id="path2557" /><path
         style="fill:#000000;fill-opacity:1;stroke-width:0.264583"
         d="m -74.435766,63.933513 c -2.031229,1.965082 -4.062457,3.930166 -6.093685,5.895248 5.645633,5.833443 11.195768,11.760135 16.759699,17.677472 -6.024094,6.022716 -12.046481,12.047138 -18.06608,18.074347 3.561457,3.44681 7.096883,7.33974 10.707356,10.45104 5.334066,-6.12409 10.34624,-12.63993 15.759245,-18.710999 1.187217,-0.208147 1.71201,1.516754 2.58767,2.09545 4.855006,5.370159 9.58003,10.872849 14.370468,16.309629 3.681513,-3.691 7.360851,-7.38417 11.038086,-11.07943 -5.829446,-5.878237 -11.464065,-11.97587 -17.140039,-17.975128 5.489596,-5.783844 11.044782,-11.505013 16.586067,-17.239256 -3.650644,-3.635145 -7.278558,-7.349083 -10.97194,-10.872722 -4.904618,5.617462 -9.312568,11.744516 -14.337109,17.197917 -0.996842,0.166661 -1.516848,-1.342895 -2.237486,-1.905638 -4.355502,-5.219639 -8.596313,-10.534023 -12.90991,-15.788373 -2.017448,1.956813 -4.034896,3.91363 -6.052342,5.870443 z"
         id="path3857" /><path
         style="fill:#000000;fill-opacity:1;stroke-width:0.264583"
         d="m -19.079973,89.044124 c 0,8.995833 0,17.991666 0,26.987496 5.291666,0 10.5833332,0 15.8750002,0 0,-6.70277 0,-13.40555 0,-20.108329 4.762495,0 9.524995,0 14.2874948,0 0,-3.79236 0,-7.584723 0,-11.377084 -4.7624998,0 -9.5249998,0 -14.2874948,0 0,-3.351389 0,-6.702775 0,-10.054165 5.027085,0 10.054165,0 15.0812448,0 0,-4.14514 0,-8.290277 0,-12.435417 -10.3187498,0 -20.6374948,0 -30.956245,0 0,8.995833 0,17.991666 0,26.987499 z"
         id="path3855" /><path
         style="fill:#000000;fill-opacity:1;stroke-width:0.264583"
         d="m 59.187082,59.543083 c -9.53017,2.510129 -19.00646,5.942981 -26.90482,11.95586 -6.55537,4.85566 -11.88852,12.48203 -11.27789,20.959444 0.37226,7.477133 4.08296,14.995903 10.76063,18.789773 4.68646,2.74613 10.13915,4.04712 15.51579,4.39289 5.66669,-0.0109 11.44573,0.11211 16.98298,-1.09771 -0.0671,-4.36946 0.13292,-9.05467 -0.0992,-13.22916 -6.42358,0.79829 -13.22656,1.02122 -19.389,-1.23197 -3.98397,-1.412811 -7.06413,-5.397542 -6.57049,-9.739961 -0.22399,-4.205168 2.85381,-7.789423 6.05786,-10.120325 5.27447,-3.738752 11.77271,-5.275508 18.02474,-6.5319 -1.00558,-4.718048 -1.94159,-9.477164 -2.97656,-14.171746 z"
         id="path3853" /><path
         style="fill:#000000;fill-opacity:1;stroke-width:0.264583"
         d="m 74.053362,88.382666 c 0,9.128125 0,18.256254 0,27.384374 10.31875,0 20.6375,0 30.956248,0 0,-4.23333 0,-8.46667 0,-12.7 -5.115278,0 -10.230558,0 -15.345838,0 0,-2.99861 0,-5.997222 0,-8.995833 4.32153,0 8.64306,0 12.964588,0 0,-3.96875 0,-7.9375 0,-11.90625 -4.321528,0 -8.643058,0 -12.964588,0 0,-3.086806 0,-6.173609 0,-9.260415 5.02709,0 10.05417,0 15.081248,0 0,-3.96875 0,-7.9375 0,-11.906251 -10.230548,0 -20.461108,0 -30.691658,0 0,9.128126 0,18.25625 0,27.384375 z"
         id="path3848" /></g><rect
       style="opacity:1;fill:#003445;fill-opacity:1;stroke:none"
       id="rect12766"
       width="115.34209"
       height="49.571419"
       x="2606.8972"
       y="683.54895" /><rect
       style="opacity:1;fill:#003445;fill-opacity:1;stroke:none"
       id="rect12768"
       width="97.165527"
       height="50.78231"
       x="2954.1577"
       y="668.80701" /><rect
       style="opacity:1;fill:#003445;fill-opacity:1;stroke:none"
       id="rect12770"
       width="116.66248"
       height="63.726345"
       x="2886.6169"
       y="378.05722" /><rect
       style="opacity:1;fill:#003445;fill-opacity:1;stroke:none"
       id="rect12774"
       width="138.36131"
       height="52.84536"
       x="2420.7537"
       y="349.13571" /><rect
       style="opacity:1;fill:#003445;fill-opacity:1;stroke:none"
       id="rect12776"
       width="108.92304"
       height="63.121597"
       x="2485.9082"
       y="372.05273" /><rect
       style="fill:#003445"
       id="rect570"
       width="55.269398"
       height="59.045082"
       x="3787.4824"
       y="1771.7109" /><rect
       style="fill:#003445"
       id="rect572"
       width="44.285851"
       height="44.805199"
       x="3799.522"
       y="1419.077" /><rect
       style="fill:#003445"
       id="rect574"
       width="47.853748"
       height="37.125305"
       x="3801.9871"
       y="1068.0304" /><rect
       style="fill:#003445"
       id="rect576"
       width="45.514019"
       height="50.007957"
       x="3803.2622"
       y="701.81586" /><rect
       style="fill:#003445"
       id="rect578"
       width="56.737709"
       height="50.029408"
       x="3791.1843"
       y="344.34915" /><rect
       style="fill:#003445"
       id="rect580"
       width="57.93058"
       height="41.38427"
       x="3786.3713"
       y="-9.5514326" /><rect
       style="fill:#003445"
       id="rect582"
       width="92.489433"
       height="55.376102"
       x="1712.3503"
       y="2139.3591" /><rect
       style="fill:#003445"
       id="rect584"
       width="118.07392"
       height="69.398521"
       x="2399.6782"
       y="2131.5427" /><rect
       style="fill:#003445"
       id="rect586"
       width="152.24184"
       height="61.018227"
       x="3085.9534"
       y="2125.9663" /><rect
       style="fill:#003445"
       id="rect588"
       width="43.208275"
       height="30.668074"
       x="3654.1179"
       y="-21.934734" /><rect
       style="fill:#003445"
       id="rect590"
       width="107.09198"
       height="59.538513"
       x="3275.2676"
       y="-36.415813" /><rect
       style="fill:#003445"
       id="rect592"
       width="88.556953"
       height="38.53756"
       x="2942.3162"
       y="-28.89636" /><rect
       style="fill:#003445"
       id="rect594"
       width="126.62778"
       height="52.056213"
       x="2583.4478"
       y="-21.587738" /><rect
       style="fill:#003445"
       id="rect596"
       width="47.40966"
       height="29.006252"
       x="2280.9597"
       y="-22.271748" /><rect
       style="fill:#003445"
       id="rect598"
       width="84.051384"
       height="47.862961"
       x="1920.0272"
       y="-24.654924" /><rect
       style="fill:#003445"
       id="rect600"
       width="98.371742"
       height="29.049622"
       x="1568.7616"
       y="-22.30014" /><rect
       style="fill:#003445"
       id="rect602"
       width="108.83801"
       height="34.592876"
       x="1241.2792"
       y="-20.348869" /><rect
       style="fill:#003445"
       id="rect604"
       width="50.410824"
       height="23.959135"
       x="903.36481"
       y="-12.094487" /><rect
       style="fill:#003445"
       id="rect606"
       width="179.24956"
       height="56.184521"
       x="553.59644"
       y="-14.65056" /><rect
       style="fill:#003445"
       id="rect608"
       width="76.861664"
       height="31.230127"
       x="212.22554"
       y="-16.849382" /></g><g
     id="layer16"><rect
       style="opacity:1;fill:#003445;fill-opacity:1;stroke:none"
       id="rect13018"
       width="453.54773"
       height="405.98196"
       x="1015.9901"
       y="930.79285" /><rect
       style="opacity:1;fill:#003445;fill-opacity:1;stroke:none"
       id="rect13024"
       width="447.83847"
       height="337.61591"
       x="1266.4152"
       y="1371.0613" /><rect
       style="opacity:1;fill:#003445;fill-opacity:1;stroke:none"
       id="rect13045"
       width="53.499405"
       height="28.199366"
       x="1590.9175"
       y="1751.377" /><rect
       style="opacity:1;fill:#003445;fill-opacity:1;stroke:none"
       id="rect13026"
       width="387.22305"
       height="245.39006"
       x="1129.7139"
       y="1540.1566" /><rect
       style="opacity:1;fill:#003445;fill-opacity:1;stroke:none"
       id="rect13048"
       width="55.917458"
       height="34.372948"
       x="3806.5471"
       y="2142.3643" /><g
       id="g12915"
       transform="matrix(8.1120892,0,0,8.1120892,-3012.7558,110.43792)"
       style="display:inline;opacity:0.641608;mix-blend-mode:normal;fill:#003445;fill-opacity:1;stroke:none;filter:url(#filter2471)"><g
         id="layer1-2"
         transform="translate(-35.477954,-382.24677)"
         style="fill:#003445;fill-opacity:1;stroke:none" /><g
         id="layer2-1"
         transform="translate(-35.477954,-382.24677)"
         style="fill:#003445;fill-opacity:1;stroke:none"><g
           id="layer3-7"
           style="fill:#003445;fill-opacity:1;stroke:none" /><g
           id="layer4-8"
           style="fill:#003445;fill-opacity:1;stroke:none" /><g
           id="layer14-5"
           style="fill:#003445;fill-opacity:1;stroke:none" /></g><g
         id="layer5-7"
         transform="translate(-35.477954,-382.24677)"
         style="fill:#003445;fill-opacity:1;stroke:none"><g
           id="layer7-4"
           style="fill:#003445;fill-opacity:1;stroke:none" /><g
           id="layer6-1"
           style="fill:#003445;fill-opacity:1;stroke:none" /><g
           id="layer13-8"
           style="fill:#003445;fill-opacity:1;stroke:none" /></g><g
         id="layer8-5"
         transform="translate(-35.477954,-382.24677)"
         style="fill:#003445;fill-opacity:1;stroke:none"><g
           id="layer12-9"
           style="fill:#003445;fill-opacity:1;stroke:none" /><g
           id="layer10-7"
           style="fill:#003445;fill-opacity:1;stroke:none"><path
             d="m 686.01129,438.94339 c -3.353,-2.77349 -29.64674,38.71236 -23.83256,43.01749 3.49603,2.61546 25.33033,-41.53853 23.83256,-43.01749 z"
             id="path13-5"
             style="fill:#003445;fill-opacity:1;fill-rule:evenodd;stroke:none;stroke-width:3.77953;stroke-linecap:butt;stroke-linejoin:miter;stroke-miterlimit:4;stroke-dasharray:none;stroke-opacity:1" /><path
             d="m 655.78463,433.1306 c -1.65949,-1.92678 -10.46548,42.78039 -6.39371,44.75985 3.49601,2.61546 9.58499,-42.43418 6.39371,-44.75985 z"
             id="path18-3"
             style="fill:#003445;fill-opacity:1;fill-rule:evenodd;stroke:none;stroke-width:3.77953;stroke-linecap:butt;stroke-linejoin:miter;stroke-miterlimit:4;stroke-dasharray:none;stroke-opacity:1" /><path
             style="fill:#003445;fill-opacity:1;fill-rule:evenodd;stroke:none;stroke-width:3.77953;stroke-linecap:butt;stroke-linejoin:miter;stroke-miterlimit:4;stroke-dasharray:none;stroke-opacity:1"
             d="m 37.625,384.15853 c -3.443355,1.88538 27.552632,22.09367 85.46875,45.9375 57.91987,23.84382 137.92965,84.27698 131.65625,94.03125 -18.81237,26.49691 -29.90817,58.18792 -22.25,112.46875 1.38111,9.55483 -28.31634,26.14558 -26.15625,40.5625 1.80637,10.9698 33.19295,-10.87512 36.625,-6.5625 2.0999,7.74098 -16.79186,46.91895 -9.15625,49.71875 5.58462,1.6596 54.67873,-46.58659 57.53125,-45.78125 80.96219,24.47603 186.3041,5.99395 188.34375,5.21875 -0.19196,-0.42524 75.80178,35.72642 82.40625,31.40625 16.65983,-18.04093 -31.57326,-43.46801 -23.53125,-53.625 3.52614,-5.31744 58.74796,19.9643 61.46875,13.0625 3.95898,-11.94824 -25.64187,-37.03634 -30.09375,-44.46875 -3.87242,-6.85285 -4.71239,-17.9194 5.21875,-24.84375 9.9349,-6.92434 111.50996,-45.77552 107.25,-75.84375 -7.36468,-54.63458 -128.82052,-58.18257 -130.78125,-62.78125 -0.92191,-2.1601 5.3446,-78.12685 -30.09375,-64.09375 -21.81925,8.12105 -4.00496,56.52301 -2.59375,62.78125 1.30204,5.7615 -9.70773,5.15389 -11.78125,2.625 -4.6287,-5.65237 -19.9116,-56.10291 -37.9375,-47.09375 -25.28137,13.939 -1.48853,57.43256 -6.53125,58.84375 -9.36668,5.23466 -8.83606,18.02087 -16.34375,28.4375 -12.38092,17.74363 -105.021,-8.31111 -134.96875,-10.125 -21.92462,-1.29455 -42.8956,16.69428 -44.875,14.40625 -26.69638,-26.73399 -81.9285,-73.2869 -142.4375,-88.75 C 90.129469,410.48114 39.649614,383.81985 37.625,384.15853 Z m 529.46875,102.21875 c 5.78951,-10e-6 10.46875,5.34579 10.46875,11.9375 2e-5,6.59167 -4.67924,11.9375 -10.46875,11.9375 -5.78954,0 -10.5,-5.34583 -10.5,-11.9375 10e-6,-6.59171 4.71046,-11.9375 10.5,-11.9375 z m -23.53125,7.25 c 4.45553,19.23387 11.41036,25.36339 32.28125,24.75 -26.56462,24.35939 -42.70923,-17.37781 -32.28125,-24.75 z M 601,543.90853 c 1.08692,0.0412 1.92367,0.28894 2.46875,0.8125 10.46545,3.79336 -44.97502,23.75615 -45.34375,20.9375 -0.57648,-2.01216 32.36808,-22.14821 42.875,-21.75 z m 5.625,12.78125 c 0.57282,-0.0444 1.07711,0.032 1.5,0.25 9.87845,9.8145 -31.27532,31.57642 -30.8125,30.8125 -3.31635,-2.00393 20.72016,-30.39586 29.3125,-31.0625 z"
             id="path14-8" /></g><g
           id="layer15-8"
           style="fill:#003445;fill-opacity:1;stroke:none" /></g></g><g
       id="g2403"
       transform="matrix(8.1120892,0,0,8.1120892,-3012.7558,110.43792)"
       style="fill:url(#linearGradient2814);fill-opacity:1;stroke:none"><g
         id="g2371"
         transform="translate(-35.477954,-382.24677)"
         style="fill:url(#linearGradient3686);fill-opacity:1;stroke:none" /><g
         id="g2379"
         transform="translate(-35.477954,-382.24677)"
         style="fill:url(#linearGradient3694);fill-opacity:1;stroke:none"><g
           id="g2373"
           style="fill:url(#linearGradient3688);fill-opacity:1;stroke:none" /><g
           id="g2375"
           style="fill:url(#linearGradient3690);fill-opacity:1;stroke:none" /><g
           id="g2377"
           style="fill:url(#linearGradient3692);fill-opacity:1;stroke:none" /></g><g
         id="g2387"
         transform="translate(-35.477954,-382.24677)"
         style="fill:url(#linearGradient3702);fill-opacity:1;stroke:none"><g
           id="g2381"
           style="fill:url(#linearGradient3696);fill-opacity:1;stroke:none" /><g
           id="g2383"
           style="fill:url(#linearGradient3698);fill-opacity:1;stroke:none" /><g
           id="g2385"
           style="fill:url(#linearGradient3700);fill-opacity:1;stroke:none" /></g><g
         id="g2401"
         transform="translate(-35.477954,-382.24677)"
         style="fill:url(#linearGradient3716);fill-opacity:1;stroke:none"><g
           id="g2389"
           style="fill:url(#linearGradient3704);fill-opacity:1;stroke:none" /><g
           id="g2397"
           style="fill:url(#linearGradient3712);fill-opacity:1;stroke:none"><path
             d="m 686.01129,438.94339 c -3.353,-2.77349 -29.64674,38.71236 -23.83256,43.01749 3.49603,2.61546 25.33033,-41.53853 23.83256,-43.01749 z"
             id="path2391"
             style="fill:url(#linearGradient3706);fill-opacity:1;fill-rule:evenodd;stroke:none;stroke-width:3.77953;stroke-linecap:butt;stroke-linejoin:miter;stroke-miterlimit:4;stroke-dasharray:none;stroke-opacity:1" /><path
             d="m 655.78463,433.1306 c -1.65949,-1.92678 -10.46548,42.78039 -6.39371,44.75985 3.49601,2.61546 9.58499,-42.43418 6.39371,-44.75985 z"
             id="path2393"
             style="fill:url(#linearGradient3708);fill-opacity:1;fill-rule:evenodd;stroke:none;stroke-width:3.77953;stroke-linecap:butt;stroke-linejoin:miter;stroke-miterlimit:4;stroke-dasharray:none;stroke-opacity:1" /><path
             style="fill:url(#linearGradient3710);fill-opacity:1;fill-rule:evenodd;stroke:none;stroke-width:3.77953;stroke-linecap:butt;stroke-linejoin:miter;stroke-miterlimit:4;stroke-dasharray:none;stroke-opacity:1"
             d="m 37.625,384.15853 c -3.443355,1.88538 27.552632,22.09367 85.46875,45.9375 57.91987,23.84382 137.92965,84.27698 131.65625,94.03125 -18.81237,26.49691 -29.90817,58.18792 -22.25,112.46875 1.38111,9.55483 -28.31634,26.14558 -26.15625,40.5625 1.80637,10.9698 33.19295,-10.87512 36.625,-6.5625 2.0999,7.74098 -16.79186,46.91895 -9.15625,49.71875 5.58462,1.6596 54.67873,-46.58659 57.53125,-45.78125 80.96219,24.47603 186.3041,5.99395 188.34375,5.21875 -0.19196,-0.42524 75.80178,35.72642 82.40625,31.40625 16.65983,-18.04093 -31.57326,-43.46801 -23.53125,-53.625 3.52614,-5.31744 58.74796,19.9643 61.46875,13.0625 3.95898,-11.94824 -25.64187,-37.03634 -30.09375,-44.46875 -3.87242,-6.85285 -4.71239,-17.9194 5.21875,-24.84375 9.9349,-6.92434 111.50996,-45.77552 107.25,-75.84375 -7.36468,-54.63458 -128.82052,-58.18257 -130.78125,-62.78125 -0.92191,-2.1601 5.3446,-78.12685 -30.09375,-64.09375 -21.81925,8.12105 -4.00496,56.52301 -2.59375,62.78125 1.30204,5.7615 -9.70773,5.15389 -11.78125,2.625 -4.6287,-5.65237 -19.9116,-56.10291 -37.9375,-47.09375 -25.28137,13.939 -1.48853,57.43256 -6.53125,58.84375 -9.36668,5.23466 -8.83606,18.02087 -16.34375,28.4375 -12.38092,17.74363 -105.021,-8.31111 -134.96875,-10.125 -21.92462,-1.29455 -42.8956,16.69428 -44.875,14.40625 -26.69638,-26.73399 -81.9285,-73.2869 -142.4375,-88.75 C 90.129469,410.48114 39.649614,383.81985 37.625,384.15853 Z m 529.46875,102.21875 c 5.78951,-10e-6 10.46875,5.34579 10.46875,11.9375 2e-5,6.59167 -4.67924,11.9375 -10.46875,11.9375 -5.78954,0 -10.5,-5.34583 -10.5,-11.9375 10e-6,-6.59171 4.71046,-11.9375 10.5,-11.9375 z m -23.53125,7.25 c 4.45553,19.23387 11.41036,25.36339 32.28125,24.75 -26.56462,24.35939 -42.70923,-17.37781 -32.28125,-24.75 z M 601,543.90853 c 1.08692,0.0412 1.92367,0.28894 2.46875,0.8125 10.46545,3.79336 -44.97502,23.75615 -45.34375,20.9375 -0.57648,-2.01216 32.36808,-22.14821 42.875,-21.75 z m 5.625,12.78125 c 0.57282,-0.0444 1.07711,0.032 1.5,0.25 9.87845,9.8145 -31.27532,31.57642 -30.8125,30.8125 -3.31635,-2.00393 20.72016,-30.39586 29.3125,-31.0625 z"
             id="path2395" /></g><g
           id="g2399"
           style="fill:url(#linearGradient3714);fill-opacity:1;stroke:none" /></g></g></g><rect
     style="display:inline;opacity:1;fill:url(#radialGradient2884);fill-opacity:1;stroke-width:3.21092"
     id="rect2876"
     width="7606.5215"
     height="4278.6685"
     x="-2462.2959"
     y="-811.427" /></svg>
